<svg xmlns="http://www.w3.org/2000/svg" xmlns:xlink="http://www.w3.org/1999/xlink" width="500" zoomAndPan="magnify" viewBox="0 0 375 374.999991" height="500" preserveAspectRatio="xMidYMid meet" version="1.2"><defs><clipPath id="95464ae4d5"><path d="M 29 27.03125 L 346.179688 27.03125 L 346.179688 344.28125 L 29 344.28125 Z M 29 27.03125 "/></clipPath><clipPath id="eb2d58b703"><path d="M 35.246094 153.074219 L 230 153.074219 L 230 348 L 35.246094 348 Z M 35.246094 153.074219 "/></clipPath><clipPath id="b0f156198a"><path d="M 104 61 L 309.148438 61 L 309.148438 265.96875 L 104 265.96875 Z M 104 61 "/></clipPath><clipPath id="41785c4dcb"><path d="M 167 96.261719 L 280.203125 96.261719 L 280.203125 209.511719 L 167 209.511719 Z M 167 96.261719 "/></clipPath><clipPath id="60c073a681"><path d="M 69.558594 222.542969 L 156.558594 222.542969 L 156.558594 309.542969 L 69.558594 309.542969 Z M 69.558594 222.542969 "/></clipPath></defs><g id="2b7bf91620"><g clip-rule="nonzero" clip-path="url(#95464ae4d5)"><path style=" stroke:none;fill-rule:evenodd;fill:#000000;fill-opacity:1;" d="M 314.984375 345.019531 C 332.621094 345.019531 346.917969 330.722656 346.917969 313.085938 L 346.917969 68.347656 C 346.917969 45.9375 328.75 27.769531 306.339844 27.769531 L 61.601562 27.769531 C 43.96875 27.769531 29.667969 42.066406 29.667969 59.703125 C 29.667969 68.171875 33.03125 76.296875 39.023438 82.285156 L 292.402344 335.664062 C 298.390625 341.65625 306.515625 345.019531 314.984375 345.019531 Z M 314.984375 345.019531 "/></g><g clip-rule="nonzero" clip-path="url(#eb2d58b703)"><path style=" stroke:none;fill-rule:evenodd;fill:#000000;fill-opacity:1;" d="M 54.417969 152.621094 C 43.578125 152.621094 34.789062 161.410156 34.789062 172.25 L 34.789062 322.679688 C 34.789062 336.457031 45.957031 347.621094 59.734375 347.621094 L 210.160156 347.621094 C 221.003906 347.621094 229.789062 338.835938 229.789062 327.992188 C 229.789062 322.789062 227.722656 317.792969 224.042969 314.113281 L 68.300781 158.371094 C 64.617188 154.691406 59.625 152.621094 54.417969 152.621094 Z M 54.417969 152.621094 "/></g><g clip-rule="nonzero" clip-path="url(#b0f156198a)"><path style=" stroke:none;fill-rule:evenodd;fill:#ffffff;fill-opacity:1;" d="M 288.957031 266.445312 C 300.375 266.445312 309.628906 257.191406 309.628906 245.777344 L 309.628906 87.375 C 309.628906 72.871094 297.867188 61.109375 283.363281 61.109375 L 124.960938 61.109375 C 113.546875 61.109375 104.292969 70.367188 104.292969 81.78125 C 104.292969 87.261719 106.46875 92.519531 110.34375 96.394531 L 274.34375 260.394531 C 278.21875 264.269531 283.476562 266.445312 288.957031 266.445312 Z M 288.957031 266.445312 "/></g><g clip-rule="nonzero" clip-path="url(#41785c4dcb)"><path style=" stroke:none;fill-rule:evenodd;fill:#000000;fill-opacity:1;" d="M 269.066406 209.777344 C 275.363281 209.777344 280.464844 204.671875 280.464844 198.375 L 280.464844 111.011719 C 280.464844 103.011719 273.980469 96.527344 265.980469 96.527344 L 178.617188 96.527344 C 172.320312 96.527344 167.214844 101.628906 167.214844 107.925781 C 167.214844 110.949219 168.417969 113.847656 170.554688 115.988281 L 261.003906 206.4375 C 263.144531 208.574219 266.042969 209.777344 269.066406 209.777344 Z M 269.066406 209.777344 "/></g><g clip-rule="nonzero" clip-path="url(#60c073a681)"><path style=" stroke:none;fill-rule:evenodd;fill:#ffffff;fill-opacity:1;" d="M 78.101562 222.339844 C 73.273438 222.339844 69.359375 226.253906 69.359375 231.085938 L 69.359375 298.097656 C 69.359375 304.234375 74.332031 309.210938 80.46875 309.210938 L 147.484375 309.210938 C 152.3125 309.210938 156.230469 305.296875 156.230469 300.464844 C 156.230469 298.148438 155.308594 295.921875 153.667969 294.28125 L 84.285156 224.902344 C 82.644531 223.261719 80.421875 222.339844 78.101562 222.339844 Z M 78.101562 222.339844 "/></g></g></svg>